# AST/ASF file generated using VICON BodyLanguage
# -----------------------------------------------
:version 1.10
:name VICON
:units
  mass 1.0
  length 0.45
  angle deg
:documentation
   .ast/.asf automatically generated from VICON data using
   VICON BodyBuilder and BodyLanguage model FoxedUp or BRILLIANT.MOD
:root
   order TX TY TZ RX RY RZ
   axis XYZ
   position 0 0 0  
   orientation 0 0 0 
:bonedata
  begin
     id 1 
     name lhipjoint
     direction 0.578396 -0.714046 0.394458 
     length 2.21935 
     axis 0 0 0  XYZ
  end
  begin
     id 2 
     name lfemur
     direction 0.34202 -0.939693 0  
     length 6.39105  
     axis 0 0 20  XYZ
    dof rx ry rz
    limits (-160.0 20.0)
           (-70.0 70.0)
           (-60.0 70.0)
  end
  begin
     id 3 
     name ltibia
     direction 0.34202 -0.939693 0   
     length 6.99037   
     axis 0 0 20   XYZ
    dof rx
    limits (-10.0 170.0)
  end
  begin
     id 4 
     name lfoot
     direction 0.0582372 -0.160005 0.985397   
     length 2.06111   
     axis -90 7.62852e-016 20   XYZ
    dof rx rz
    limits (-45.0 90.0)
           (-70.0 20.0)
  end
  begin
     id 5 
     name ltoes
     direction 1.53556e-011 -4.21875e-011 1   
     length 1.04074   
     axis -90 7.62852e-016 20   XYZ
    dof rx
    limits (-90.0 20.0)
  end
  begin
     id 6 
     name rhipjoint
     direction -0.558179 -0.726269 0.40121   
     length 2.182  
     axis 0 0 0  XYZ 
  end
  begin
     id 7 
     name rfemur
     direction -0.34202 -0.939693 0   
     length 6.51172   
     axis 0 0 -20   XYZ
    dof rx ry rz
    limits (-160.0 20.0)
           (-70.0 70.0)
           (-70.0 60.0)
  end
  begin
     id 8 
     name rtibia
     direction -0.34202 -0.939693 0   
     length 7.02607   
     axis 0 0 -20   XYZ
    dof rx
    limits (-10.0 170.0)
 end
 begin
     id 9 
     name rfoot
     direction -0.0788856 -0.216737 0.973038   
     length 1.96734  
     axis -90 -7.62852e-016 -20   XYZ
    dof rx rz
    limits (-45.0 90.0)
           (-20.0 70.0)
  end
  begin
     id 10 
     name rtoes
     direction -1.53567e-011 -4.21783e-011 1   
     length 0.990825   
     axis -90 -7.62852e-016 -20   XYZ
    dof rx
    limits (-90.0 20.0)
  end
  begin
     id 11 
     name lowerback
     direction 0.00668177 0.999323 -0.0361741   
     length 1.7655   
     axis 0 0 0   XYZ
    dof rx ry rz
    limits (-20.0 45.0)
           (-30.0 30.0)
           (-30.0 30.0)
  end
  begin
     id 12 
     name upperback
     direction -0.00222086 0.99851 0.0545167   
     length 1.74912   
     axis 0 0 0   XYZ
    dof rx ry rz
    limits (-20.0 45.0)
           (-30.0 30.0)
           (-30.0 30.0)
  end
  begin
     id 13 
     name thorax
     direction -0.00733971 0.997496 0.0703443   
     length 1.75715   
     axis 0 0 0   XYZ
    dof rx ry rz
    limits (-20.0 45.0)
           (-30.0 30.0)
           (-30.0 30.0)
  end
  begin
     id 14 
     name lowerneck
     direction 0.0279797 0.994795 0.0979765   
     length 1.46939   
     axis 0 0 0   XYZ
    dof rx ry rz
    limits (-20.0 45.0)
           (-30.0 30.0)
           (-30.0 30.0)
  end
  begin
     id 15 
     name upperneck
     direction 0.00339187 0.976776 -0.214238   
     length 1.48018   
     axis 0 0 0   XYZ
    dof rx ry rz
    limits (-20.0 45.0)
           (-30.0 30.0)
           (-30.0 30.0)
  end
  begin
     id 16
     name head
     direction -0.00263506 0.996603 -0.0823096  
     length 1.4976  
     axis 0 0 0   XYZ
    dof rx ry rz
    limits (-20.0 45.0)
           (-30.0 30.0)
           (-30.0 30.0)
  end
  begin
     id 17 
     name lclavicle
     direction 0.894044 0.44508 -0.0508781  
     length 3.03024  
     axis 0 0 0   XYZ
    dof ry rz
    limits (-20.0 10.0)
           (0.0 20.0)
  end
  begin
     id 18 
     name lhumerus
     direction 1 -4.48961e-011 -2.39475e-018   
     length 4.4661   
     axis 180 -30 -90   XYZ
    dof rx ry rz
    limits (-60.0 90.0)
           (-90.0 90.0)
           (-90.0 90.0)
  end
  begin
     id 19
     name lradius
     direction 1 -4.48961e-011 9.29328e-028   
     length 3.41414   
     axis 180 -30 -90   XYZ
    dof rx
    limits (-10.0 170.0)
  end
  begin
     id 20
     name lwrist
     direction 1 -4.48985e-011 1.53461e-026   
     length 1.70707   
     axis -1.09697e-014 90 90   XYZ
    dof ry
    limits (-180.0 0.0)
 end
  begin
     id 21 
     name lhand
     direction 1 -4.48966e-011 3.06923e-026   
     length 0.328298   
     axis -1.95843e-014 90 90   XYZ
    dof rx rz
    limits (-90.0 90.0)
           (-45.0 45.0)
  end
  begin
     id 22 
     name lfingers
     direction 1 -4.48893e-011 6.13845e-026   
     length 0.264682   
     axis -3.91686e-014 90 90   XYZ
    dof rx
    limits (0.0 90.0)
  end
  begin
     id 23
     name lthumb
     direction 0.707107 -6.34876e-011 0.707107   
     length 0.380032   
     axis -90 45 2.85299e-015   XYZ
    dof rx rz
    limits (-45.0 45.0)
           (-45.0 45.0)
  end
  begin
     id 24 
     name rclavicle
     direction -0.936955 0.347862 -0.0332887   
     length 3.26927  
     axis 0 0 0   XYZ 
    dof ry rz
    limits (-10.0 20.0)
           (-20.0 0.0)
  end
  begin
     id 25 
     name rhumerus
     direction -1 -4.4896e-011 1.78637e-018  
     length 4.40431   
     axis 180 30 90   XYZ
    dof rx ry rz
    limits (-90.0 60.0)
           (-90.0 90.0)
           (-90.0 90.0)
  end
  begin
     id 26 
     name rradius
     direction -1 -4.48955e-011 9.34036e-027   
     length 3.04688   
     axis 180 30 90   XYZ
    dof rx
    limits (-10.0 170.0)
  end
  begin
     id 27 
     name rwrist
     direction -1 -4.49011e-011 1.53461e-026   
     length 1.52344   
     axis -1.09697e-014 -90 -90   XYZ
    dof ry
    limits (-180.0 0.0)
  end
  begin
     id 28
     name rhand
     direction -1 -4.48834e-011 3.06923e-026   
     length 0.500489   
     axis -1.95843e-014 -90 -90   XYZ
    dof rx rz
    limits (-90.0 90.0)
           (-45.0 45.0)
  end
  begin
     id 29
     name rfingers
     direction -1 -4.48967e-011 6.13845e-026   
     length 0.403507   
     axis -3.91686e-014 -90 -90   XYZ
    dof rx
    limits (0.0 90.0)
  end
  begin
     id 30
     name rthumb
     direction -0.707107 -6.34826e-011 0.707107   
     length 0.579358   
     axis -90 -45 -2.85299e-015   XYZ
    dof rx rz
    limits (-45.0 45.0)
           (-45.0 45.0)
  end
:hierarchy
  begin
    root lhipjoint rhipjoint lowerback
    lhipjoint lfemur
    lfemur ltibia
    ltibia lfoot
    lfoot ltoes
    rhipjoint rfemur
    rfemur rtibia
    rtibia rfoot
    rfoot rtoes
    lowerback upperback
    upperback thorax
    thorax lowerneck lclavicle rclavicle
    lowerneck upperneck
    upperneck head
    lclavicle lhumerus
    lhumerus lradius
    lradius lwrist
    lwrist lhand lthumb
    lhand lfingers
    rclavicle rhumerus
    rhumerus rradius
    rradius rwrist
    rwrist rhand rthumb
    rhand rfingers
  end

#!OML:ASF H:\IndianDance\Patient Classification 1\Patient 1\Session 1\dancer.ASF
:FULLY-SPECIFIED
:DEGREES
1124
root 2.27061 15.7693 -17.4455 903.478 -57.8026 -176.227
lowerback 0.575056 6.52451 3.53046
upperback -7.5518 8.62896 -1.02763
thorax -7.55453 3.89168 -3.57335
lowerneck -17.0065 7.44656 8.3612
upperneck 23.1183 9.7215 -6.97361
head 11.0612 4.24162 -2.47754
rclavicle -1.19594e-013 -3.00165e-014
rhumerus -29.9456 42.0779 -69.9635
rradius 110.607
rwrist -41.9368
rhand -24.9656 -1.62588
rfingers 7.12502
rthumb 1.5448 -31.6
lclavicle -1.19594e-013 -3.00165e-014
lhumerus 16.2963 -47.4391 10.6721
lradius 110.012
lwrist -6.3557
lhand -42.1337 6.47126
lfingers 7.12502
lthumb -15.024 -324.094
rfemur -21.071 -5.46865 26.099
rtibia 36.0081
rfoot -15.0146 -14.9966
rtoes 5.42497
lfemur -26.5525 -1.43094 -10.7797
ltibia 47.3451
lfoot -8.00096 -10.4322
ltoes -6.72809
1125
root 2.30437 15.766 -17.4918 902.784 -60.035 -175.325
lowerback 0.643411 6.53954 3.67147
upperback -7.56703 8.67044 -0.96805
thorax -7.59718 3.90624 -3.59953
lowerneck -16.9723 7.51184 8.35625
upperneck 22.9986 9.74636 -6.68512
head 10.995 4.29643 -2.36693
rclavicle 5.06652e-014 8.34896e-015
rhumerus -29.5753 42.4142 -69.0269
rradius 111.076
rwrist -39.1452
rhand -24.542 -1.04647
rfingers 7.12502
rthumb 1.95392 -31.0173
lclavicle 5.06652e-014 8.34896e-015
lhumerus 15.3071 -48.1044 11.2372
lradius 110.515
lwrist -6.70711
lhand -41.9458 6.24677
lfingers 7.12502
lthumb -14.8429 -324.305
rfemur -21.1007 -6.31366 26.7615
rtibia 35.9605
rfoot -15.0599 -15.874
rtoes 5.59884
lfemur -27.0888 0.0292659 -11.1451
ltibia 48.2627
lfoot -8.58082 -7.40002
ltoes -7.78134
1126
root 2.33639 15.7619 -17.5389 901.935 -62.2675 -174.311
lowerback 0.724692 6.52619 3.80099
upperback -7.58214 8.67417 -0.905106
thorax -7.65235 3.90231 -3.61605
lowerneck -16.9145 7.59622 8.39154
upperneck 22.8979 9.79359 -6.41529
head 10.9369 4.36195 -2.26741
rclavicle -5.889e-015 -1.90833e-014
rhumerus -29.1199 42.8227 -68.0865
rradius 111.473
rwrist -35.813
rhand -23.9797 -0.287331
rfingers 7.12502
rthumb 2.49693 -30.2525
lclavicle -5.889e-015 -1.90833e-014
lhumerus 14.2656 -48.6508 11.7988
lradius 110.913
lwrist -6.91011
lhand -41.7628 5.63419
lfingers 7.12502
lthumb -14.6666 -324.905
rfemur -21.1294 -7.14102 27.4145
rtibia 35.9446
rfoot -15.1526 -16.7651
rtoes 5.87771
lfemur -27.555 1.46487 -11.5591
ltibia 49.1983
lfoot -9.04253 -4.42014
ltoes -8.01238
1127
root 2.36625 15.757 -17.5865 900.917 -64.4963 -173.18
lowerback 0.823055 6.48792 3.91349
upperback -7.59576 8.64465 -0.842695
thorax -7.72089 3.88239 -3.62455
lowerneck -16.8357 7.69437 8.45772
upperneck 22.8257 9.85702 -6.15835
head 10.8894 4.43505 -2.17623
rclavicle 9.91935e-014 3.20043e-014
rhumerus -28.5787 43.2841 -67.1508
rradius 111.797
rwrist -32.1265
rhand -23.3394 0.696073
rfingers 7.12502
rthumb 3.11538 -29.2609
lclavicle 9.91935e-014 3.20043e-014
lhumerus 13.1877 -49.0973 12.3674
lradius 111.191
lwrist -7.00305
lhand -41.562 4.78419
lfingers 7.12502
lthumb -14.4731 -325.741
rfemur -21.1519 -7.95237 28.0351
rtibia 35.9698
rfoot -15.2954 -17.6464
rtoes 6.23015
lfemur -27.9263 2.84196 -12.0106
ltibia 50.1323
lfoot -9.46883 -1.62271
ltoes -7.69098
1128
root 2.39376 15.752 -17.6336 899.714 -66.7153 -171.915
lowerback 0.943988 6.42901 4.01502
upperback -7.60715 8.58815 -0.784247
thorax -7.80337 3.84909 -3.63261
lowerneck -16.7506 7.80445 8.54626
upperneck 22.7962 9.93417 -5.90686
head 10.8593 4.51433 -2.08909
rclavicle -3.598e-014 -4.17448e-015
rhumerus -27.9656 43.7911 -66.2402
rradius 112.052
rwrist -28.2812
rhand -22.7302 1.91299
rfingers 7.12502
rthumb 3.70369 -28.0346
lclavicle -3.598e-014 -4.17448e-015
lhumerus 12.0863 -49.4204 12.9711
lradius 111.327
lwrist -6.92005
lhand -41.3524 3.42258
lfingers 7.12502
lthumb -14.2712 -327.088
rfemur -21.1738 -8.76371 28.6044
rtibia 36.0506
rfoot -15.4782 -18.4751
rtoes 6.55514
lfemur -28.1946 4.10889 -12.479
ltibia 51.0438
lfoot -9.89127 0.842033
ltoes -6.84719
1129
root 2.41881 15.7476 -17.6793 898.358 -68.9103 -170.543
lowerback 1.07932 6.35636 4.09157
upperback -7.61604 8.51211 -0.7386
thorax -7.89477 3.80695 -3.64101
lowerneck -16.67 7.92179 8.64782
upperneck 22.813 10.0199 -5.65876
head 10.8489 4.59675 -2.00404
rclavicle 5.8393e-014 2.72335e-014
rhumerus -27.2886 44.3383 -65.3716
rradius 112.25
rwrist -24.5239
rhand -22.2316 3.32238
rfingers 7.12502
rthumb 4.18517 -26.6162
lclavicle 5.8393e-014 2.72335e-014
lhumerus 10.9749 -49.6229 13.6219
lradius 111.311
lwrist -6.68662
lhand -41.1205 1.71613
lfingers 7.12502
lthumb -14.0477 -328.779
rfemur -21.2137 -9.59411 29.0884
rtibia 36.2092
rfoot -15.6976 -19.1952
rtoes 6.77471
lfemur -28.3551 5.24438 -12.9688
ltibia 51.9065
lfoot -10.3438 2.85847
ltoes -5.74338
1130
root 2.44154 15.7433 -17.7228 896.872 -71.0676 -169.068
lowerback 1.22284 6.27991 4.13454
upperback -7.62829 8.4285 -0.710178
thorax -7.9974 3.76202 -3.6499
lowerneck -16.6158 8.03902 8.73574
upperneck 22.8913 10.105 -5.39548
head 10.8644 4.67763 -1.91066
rclavicle -6.49529e-014 -2.98177e-014
rhumerus -26.5676 44.9141 -64.5592
rradius 112.401
rwrist -21.0651
rhand -21.9394 4.86456
rfingers 7.12502
rthumb 4.46729 -25.0683
lclavicle -6.49529e-014 -2.98177e-014
lhumerus 9.85935 -49.7152 14.3396
lradius 111.153
lwrist -6.32178
lhand -40.8451 -0.254656
lfingers 7.12502
lthumb -13.7824 -330.731
rfemur -21.3039 -10.4669 29.4696
rtibia 36.4762
rfoot -15.9447 -19.7494
rtoes 6.82128
lfemur -28.4186 6.25207 -13.4791
ltibia 52.6978
lfoot -10.8083 4.34423
ltoes -4.72563
1131
root 2.46206 15.7386 -17.7637 895.277 -73.1499 -167.489
lowerback 1.35395 6.21796 4.14425
upperback -7.64416 8.36008 -0.704158
thorax -8.09673 3.72595 -3.66342
lowerneck -16.6086 8.15205 8.81596
upperneck 23.0309 10.1834 -5.12924
head 10.9105 4.75315 -1.81421
rclavicle -1.85367e-014 -2.38542e-015
rhumerus -25.8384 45.5117 -63.8254
rradius 112.523
rwrist -18.0709
rhand -21.8695 6.4525
rfingers 7.12502
rthumb 4.53474 -23.479
lclavicle -1.85367e-014 -2.38542e-015
lhumerus 8.75652 -49.7142 15.1275
lradius 110.868
lwrist -5.83191
lhand -40.5569 -2.3269
lfingers 7.12502
lthumb -13.5046 -332.785
rfemur -21.4853 -11.3818 29.7409
rtibia 36.8933
rfoot -16.2003 -20.0814
rtoes 6.59485
lfemur -28.3952 7.15497 -14.0054
ltibia 53.3939
lfoot -11.2241 5.285
ltoes -4.19347
1132
root 2.48076 15.7323 -17.8013 893.593 -75.1349 -165.802
lowerback 1.45624 6.18234 4.11994
upperback -7.66634 8.32126 -0.723167
thorax -8.18457 3.70603 -3.68301
lowerneck -16.6238 8.25496 8.89793
upperneck 23.1913 10.2504 -4.88289
head 10.9689 4.82053 -1.72589
rclavicle 3.91109e-014 7.55382e-015
rhumerus -25.1184 46.1386 -63.1742
rradius 112.623
rwrist -15.6115
rhand -22.1042 7.9584
rfingers 7.12502
rthumb 4.3081 -21.9778
lclavicle 3.91109e-014 7.55382e-015
lhumerus 7.66586 -49.649 15.9893
lradius 110.487
lwrist -5.23259
lhand -40.3096 -4.49159
lfingers 7.12502
lthumb -13.2662 -334.934
rfemur -21.8 -12.34 29.8996
rtibia 37.5099
rfoot -16.4561 -20.1388
rtoes 6.0573
lfemur -28.3001 7.98271 -14.5481
ltibia 53.9758
lfoot -11.5527 5.70676
ltoes -4.39472
1133
root 2.49797 15.723 -17.8352 891.851 -76.9967 -164.016
lowerback 1.50285 6.1863 4.07307
upperback -7.69205 8.32828 -0.774125
thorax -8.23817 3.71029 -3.71954
lowerneck -16.6919 8.34344 8.96592
upperneck 23.3765 10.2984 -4.64359
head 11.045 4.8761 -1.63857
rclavicle -7.42461e-014 -1.55052e-014
rhumerus -24.4322 46.7882 -62.6067
rradius 112.708
rwrist -13.6666
rhand -22.6518 9.30687
rfingers 7.12502
rthumb 3.77935 -20.6394
lclavicle -7.42461e-014 -1.55052e-014
lhumerus 6.59766 -49.5493 16.9132
lradius 110.056
lwrist -4.56262
lhand -40.1427 -6.61956
lfingers 7.12502
lthumb -13.1053 -337.051
rfemur -22.2935 -13.3359 29.945
rtibia 38.3744
rfoot -16.6925 -19.8762
rtoes 5.17115
lfemur -28.1508 8.76874 -15.1101
ltibia 54.4257
lfoot -11.7755 5.67988
ltoes -5.30675
1134
root 2.51437 15.7092 -17.8651 890.06 -78.7168 -162.129
lowerback 1.4841 6.23931 4.01127
upperback -7.72264 8.39374 -0.857849
thorax -8.25104 3.7446 -3.77765
lowerneck -16.7805 8.41321 9.02113
upperneck 23.5514 10.3239 -4.41677
head 11.1196 4.91885 -1.55635
rclavicle -9.76033e-014 -7.55382e-015
rhumerus -23.8094 47.448 -62.1167
rradius 112.784
rwrist -12.1939
rhand -23.4607 10.5595
rfingers 7.12502
rthumb 2.99823 -19.3992
lclavicle -9.76033e-014 -7.55382e-015
lhumerus 5.57053 -49.4588 17.8874
lradius 109.624
lwrist -3.88807
lhand -40.0756 -8.49589
lfingers 7.12502
lthumb -13.0407 -338.924
rfemur -22.9894 -14.3339 29.8805
rtibia 39.5286
rfoot -16.8981 -19.263
rtoes 3.94619
lfemur -27.954 9.53864 -15.6876
ltibia 54.7247
lfoot -11.8934 5.31389
ltoes -6.76575
1135
root 2.53037 15.6892 -17.8913 888.206 -80.2882 -160.127
lowerback 1.38721 6.34522 3.94333
upperback -7.74476 8.5232 -0.971704
thorax -8.19968 3.81266 -3.85658
lowerneck -16.8901 8.46248 9.05815
upperneck 23.6918 10.3263 -4.20639
head 11.1835 4.94789 -1.4801
rclavicle -1.31049e-013 -3.45885e-014
rhumerus -23.2388 48.112 -61.6639
rradius 112.852
rwrist -11.0507
rhand -24.4998 11.6309
rfingers 7.12502
rthumb 1.99464 -18.3396
lclavicle -1.31049e-013 -3.45885e-014
lhumerus 4.60428 -49.4046 18.8918
lradius 109.258
lwrist -3.32118
lhand -40.0923 -9.94645
lfingers 7.12502
lthumb -13.0567 -340.375
rfemur -23.8915 -15.288 29.7087
rtibia 40.9966
rfoot -17.042 -18.2908
rtoes 2.36962
lfemur -27.7086 10.3209 -16.2759
ltibia 54.8518
lfoot -11.9804 4.74906
ltoes -8.65594
